# Blender 4.0.1
# www.blender.org
mtllib turela.mtl
o Cube.001
v -0.314808 0.611011 0.391216
v -0.314808 0.611011 -0.287029
v 0.262494 0.611011 -0.287028
v 0.262494 0.611011 0.391216
v -0.217276 0.851011 0.197694
v -0.217276 0.851011 -0.093506
v 0.164963 0.851011 -0.093506
v 0.164963 0.851011 0.197694
v -0.314808 0.611011 0.052094
v -0.026157 0.611011 0.391216
v -0.314808 0.731011 0.391216
v -0.026157 0.611011 -0.287028
v -0.314808 0.731011 -0.287029
v 0.262494 0.611011 0.052094
v 0.262494 0.731011 -0.287028
v 0.262494 0.731011 0.391216
v -0.217276 0.851011 0.052094
v -0.026157 0.851011 0.197694
v -0.026157 0.851011 -0.093506
v 0.164963 0.851011 0.052094
v -0.026157 0.731011 0.391216
v 0.262494 0.731011 0.052094
v -0.026157 0.769405 -0.450000
v -0.314808 0.731011 0.052094
v -0.026157 0.851011 0.052094
v -0.042898 0.593009 0.155419
v -0.314808 0.611011 -0.020706
v 0.118169 0.611011 0.391216
v -0.314808 0.791011 0.340287
v -0.020371 0.626593 -0.384300
v -0.314808 0.791011 -0.236100
v 0.262494 0.611011 0.124894
v 0.262494 0.791011 -0.236099
v 0.262494 0.791011 0.340287
v -0.217276 0.851011 -0.020706
v 0.069403 0.851011 0.197694
v 0.069403 0.851011 -0.093506
v 0.164963 0.851011 0.124894
v -0.314808 0.611011 0.124894
v -0.170482 0.611011 0.391216
v -0.314808 0.671011 0.391216
v -0.031942 0.626593 -0.384300
v -0.314808 0.671011 -0.287029
v 0.262494 0.611011 -0.020706
v 0.262494 0.671011 -0.287028
v 0.262494 0.671011 0.391216
v -0.217276 0.851011 0.124894
v -0.121717 0.851011 0.197694
v -0.121716 0.851011 -0.093506
v 0.164963 0.851011 -0.020706
v 0.118169 0.731011 0.391216
v -0.170482 0.731011 0.391216
v -0.026157 0.791011 0.340287
v -0.026157 0.671011 0.391216
v 0.262494 0.731011 0.124894
v 0.262494 0.731011 -0.020706
v 0.262494 0.671011 0.052094
v 0.262494 0.791011 0.052094
v -0.007686 0.769405 -0.450000
v -0.044627 0.769405 -0.450001
v -0.026157 0.791011 -0.236099
v -0.314808 0.731011 -0.020706
v -0.314808 0.731011 0.124894
v -0.314808 0.671011 0.052094
v -0.314808 0.791011 0.052094
v -0.026157 0.851011 -0.020706
v -0.026157 0.851011 0.124894
v -0.121716 0.851011 0.052094
v 0.069403 0.851011 0.052094
v 0.118169 0.611011 0.052094
v -0.170482 0.611011 0.052094
v -0.026157 0.611011 0.124894
v -0.026157 0.611011 -0.020706
v -0.170482 0.611011 -0.020706
v -0.170482 0.611011 0.124894
v 0.118169 0.611011 0.124894
v 0.069403 0.851011 0.124894
v -0.121717 0.851011 0.124894
v -0.121716 0.851011 -0.020706
v -0.314808 0.791011 0.124894
v -0.314808 0.671011 0.124894
v -0.314808 0.671011 -0.020706
v -0.170482 0.791011 -0.236100
v -0.095520 0.655429 -0.384300
v 0.043206 0.655429 -0.384300
v 0.262494 0.791011 -0.020706
v 0.262494 0.671011 -0.020706
v 0.262494 0.671011 0.124894
v -0.170482 0.671011 0.391216
v -0.170482 0.791011 0.340287
v 0.118169 0.791011 0.340287
v 0.118169 0.671011 0.391216
v 0.262494 0.791011 0.124894
v 0.118169 0.791011 -0.236099
v -0.314808 0.791011 -0.020706
v 0.069403 0.851011 -0.020706
v 0.118169 0.611011 -0.020706
v -0.122066 0.704925 -0.278199
v -0.314808 0.702093 0.391216
v -0.314808 0.702093 -0.287029
v 0.262494 0.702093 -0.287028
v 0.262494 0.702093 0.391216
v -0.026157 0.702093 0.391216
v 0.262494 0.702093 0.052094
v -0.314808 0.702093 0.052094
v -0.314808 0.702093 0.124894
v -0.314808 0.702093 -0.020706
v -0.069156 0.714472 -0.418335
v 0.016842 0.714472 -0.418335
v 0.262494 0.702093 -0.020706
v 0.262494 0.702093 0.124894
v -0.170482 0.702093 0.391216
v 0.118169 0.702093 0.391216
vn -0.0000 -1.0000 -0.0000
vn -0.0000 1.0000 -0.0000
vn -0.5240 0.8517 -0.0000
vn -0.0000 0.9217 -0.3878
vn 0.5240 0.8517 -0.0000
vn -0.0000 -0.0000 1.0000
vn -0.0000 0.6471 0.7624
vn 1.0000 -0.0000 -0.0000
vn 0.4714 -0.0000 -0.8819
vn -1.0000 -0.0000 -0.0000
vn -0.0000 0.8614 0.5080
vn -0.0538 -0.9928 -0.1066
vn -0.0000 0.9949 -0.1005
vn -0.2896 0.9202 -0.2634
vn -0.2462 -0.5428 -0.8029
vn -0.4714 -0.0000 -0.8819
vn 0.2462 -0.5428 -0.8029
vn -0.0000 0.9217 0.3878
vn 0.2896 0.9202 -0.2634
vn 0.0489 -0.9941 -0.0970
vn -0.4055 -0.0000 -0.9141
vn 0.4055 -0.0000 -0.9141
vn -0.0464 -0.9986 -0.0251
vn 0.4675 -0.2754 -0.8400
vn -0.1397 -0.9902 -0.0000
vn -0.2549 -0.9570 -0.1381
vn 0.0464 -0.9986 -0.0251
vn 0.3037 0.7385 0.6020
vn -0.0000 0.6471 -0.7624
vn -0.4675 -0.2754 -0.8400
vn 0.2549 -0.9570 -0.1381
vn -0.4391 -0.2934 -0.8492
vn 0.4391 -0.2934 -0.8492
s 0
usemtl Material.001
f 97//1 3//1 44//1
f 96//2 7//2 37//2
f 95//3 6//3 31//3
f 94//4 7//4 33//4
f 93//5 8//5 34//5
f 28//6 46//6 92//6
f 51//7 34//7 91//7
f 52//7 53//7 90//7
f 40//6 54//6 89//6
f 55//8 102//8 111//8
f 56//8 104//8 110//8
f 50//5 58//5 86//5
f 109//9 15//9 101//9
f 49//4 61//4 83//4
f 62//10 100//10 107//10
f 63//10 105//10 106//10
f 47//3 65//3 80//3
f 79//2 19//2 49//2
f 67//2 68//2 78//2
f 38//2 69//2 77//2
f 70//1 32//1 76//1
f 75//11 26//11 72//11
f 74//1 12//1 73//1
f 71//12 73//12 26//12
f 9//1 74//1 71//1
f 2//1 74//1 27//1
f 40//1 72//1 10//1
f 39//1 40//1 1//1
f 9//1 75//1 39//1
f 28//1 32//1 4//1
f 10//1 76//1 28//1
f 72//1 70//1 76//1
f 77//2 25//2 67//2
f 36//2 67//2 18//2
f 36//2 38//2 77//2
f 78//2 17//2 47//2
f 48//2 47//2 5//2
f 48//2 67//2 78//2
f 79//2 6//2 35//2
f 68//2 35//2 17//2
f 25//2 79//2 68//2
f 80//10 24//10 63//10
f 29//10 63//10 11//10
f 5//3 80//3 29//3
f 81//10 9//10 39//10
f 41//10 39//10 1//10
f 11//10 106//10 99//10
f 82//10 2//10 27//10
f 64//10 27//10 9//10
f 24//10 107//10 105//10
f 60//13 61//13 23//13
f 13//14 83//14 60//14
f 6//4 83//4 31//4
f 2//15 84//15 42//15
f 13//16 108//16 100//16
f 85//17 3//17 30//17
f 86//8 22//8 56//8
f 33//8 56//8 15//8
f 7//5 86//5 33//5
f 87//8 14//8 44//8
f 45//8 44//8 3//8
f 15//8 110//8 101//8
f 32//8 46//8 4//8
f 14//8 88//8 32//8
f 22//8 111//8 104//8
f 89//6 103//6 112//6
f 41//6 112//6 99//6
f 1//6 89//6 41//6
f 48//18 53//18 18//18
f 5//18 90//18 48//18
f 11//7 90//7 29//7
f 91//18 8//18 36//18
f 53//18 36//18 18//18
f 21//7 91//7 53//7
f 92//6 102//6 113//6
f 54//6 113//6 103//6
f 10//6 92//6 54//6
f 55//8 34//8 16//8
f 22//8 93//8 55//8
f 20//5 93//5 58//5
f 94//19 15//19 59//19
f 61//13 59//13 23//13
f 61//4 37//4 94//4
f 62//10 31//10 13//10
f 65//10 62//10 24//10
f 17//3 95//3 65//3
f 96//2 19//2 66//2
f 69//2 66//2 25//2
f 69//2 50//2 96//2
f 97//1 14//1 70//1
f 73//20 70//20 26//20
f 12//1 97//1 73//1
f 21//6 113//6 51//6
f 113//6 16//6 51//6
f 99//6 52//6 11//6
f 112//6 21//6 52//6
f 104//8 88//8 57//8
f 101//8 87//8 45//8
f 100//21 84//21 43//21
f 105//10 82//10 64//10
f 99//10 81//10 41//10
f 106//10 64//10 81//10
f 107//10 43//10 82//10
f 85//22 101//22 45//22
f 87//8 104//8 57//8
f 111//8 46//8 88//8
f 97//23 30//23 3//23
f 96//2 50//2 7//2
f 95//3 35//3 6//3
f 94//4 37//4 7//4
f 93//5 38//5 8//5
f 28//6 4//6 46//6
f 51//7 16//7 34//7
f 52//7 21//7 53//7
f 40//6 10//6 54//6
f 55//8 16//8 102//8
f 56//8 22//8 104//8
f 50//5 20//5 58//5
f 109//24 59//24 15//24
f 49//4 19//4 61//4
f 62//10 13//10 100//10
f 63//10 24//10 105//10
f 47//3 17//3 65//3
f 79//2 66//2 19//2
f 67//2 25//2 68//2
f 38//2 20//2 69//2
f 70//1 14//1 32//1
f 75//25 71//25 26//25
f 74//26 42//26 12//26
f 71//1 74//1 73//1
f 9//1 27//1 74//1
f 2//27 42//27 74//27
f 40//1 75//1 72//1
f 39//1 75//1 40//1
f 9//1 71//1 75//1
f 28//1 76//1 32//1
f 10//1 72//1 76//1
f 72//28 26//28 70//28
f 77//2 69//2 25//2
f 36//2 77//2 67//2
f 36//2 8//2 38//2
f 78//2 68//2 17//2
f 48//2 78//2 47//2
f 48//2 18//2 67//2
f 79//2 49//2 6//2
f 68//2 79//2 35//2
f 25//2 66//2 79//2
f 80//10 65//10 24//10
f 29//10 80//10 63//10
f 5//3 47//3 80//3
f 81//10 64//10 9//10
f 41//10 81//10 39//10
f 11//10 63//10 106//10
f 82//10 43//10 2//10
f 64//10 82//10 27//10
f 24//10 62//10 107//10
f 60//13 83//13 61//13
f 13//29 31//29 83//29
f 6//4 49//4 83//4
f 2//21 43//21 84//21
f 13//30 60//30 108//30
f 85//22 45//22 3//22
f 86//8 58//8 22//8
f 33//8 86//8 56//8
f 7//5 50//5 86//5
f 87//8 57//8 14//8
f 45//8 87//8 44//8
f 15//8 56//8 110//8
f 32//8 88//8 46//8
f 14//8 57//8 88//8
f 22//8 55//8 111//8
f 89//6 54//6 103//6
f 41//6 89//6 112//6
f 1//6 40//6 89//6
f 48//18 90//18 53//18
f 5//18 29//18 90//18
f 11//7 52//7 90//7
f 91//18 34//18 8//18
f 53//18 91//18 36//18
f 21//7 51//7 91//7
f 92//6 46//6 102//6
f 54//6 92//6 113//6
f 10//6 28//6 92//6
f 55//8 93//8 34//8
f 22//8 58//8 93//8
f 20//5 38//5 93//5
f 94//29 33//29 15//29
f 61//13 94//13 59//13
f 61//4 19//4 37//4
f 62//10 95//10 31//10
f 65//10 95//10 62//10
f 17//3 35//3 95//3
f 96//2 37//2 19//2
f 69//2 96//2 66//2
f 69//2 20//2 50//2
f 97//1 44//1 14//1
f 73//1 97//1 70//1
f 12//31 30//31 97//31
f 21//6 103//6 113//6
f 113//6 102//6 16//6
f 99//6 112//6 52//6
f 112//6 103//6 21//6
f 104//8 111//8 88//8
f 101//8 110//8 87//8
f 100//32 108//32 84//32
f 105//10 107//10 82//10
f 99//10 106//10 81//10
f 106//10 105//10 64//10
f 107//10 100//10 43//10
f 85//33 109//33 101//33
f 87//8 110//8 104//8
f 111//8 102//8 46//8
